<svg width="210" height="117" viewBox="0 0 210 117" fill="none" xmlns="http://www.w3.org/2000/svg">
<path d="M148.469 27.2031L145.422 40.4219H112.844L109.938 52.8906H140.172L137.078 66.1562H106.844L102.766 83.7812H135.344L132.344 97H81.7656L97.8906 27.2031H148.469Z" fill="#7E766C"/>
<path d="M192.328 97H177L156.516 48.6719L145.359 97H128.766L144.891 27.2031H165.047L182.578 67.6094L191.859 27.2031H208.453L192.328 97Z" fill="#7E766C"/>
<path d="M68.2188 98.4531C58.3125 98.4531 50.5469 96.1094 44.9219 91.4219C39.3281 86.7344 36.5312 80.0781 36.5312 71.4531C36.5312 58.0156 40.8594 47.0625 49.5156 38.5938C58.1719 30.0938 69.1562 25.8438 82.4688 25.8438C87.5 25.8438 92.1562 26.2812 96.4375 27.1562C100.75 28 105.219 29.625 109.844 32.0312L105.859 48.3906H103.844C100.094 44.8281 96.5469 42.3594 93.2031 40.9844C89.8594 39.5781 86.1719 38.875 82.1406 38.875C78.0469 38.875 74.3438 39.7188 71.0312 41.4062C67.7188 43.0625 64.8906 45.3125 62.5469 48.1562C60.3281 50.8438 58.5938 54.0312 57.3438 57.7188C56.0938 61.4062 55.4688 65.2656 55.4688 69.2969C55.4688 74.8906 57 79.0156 60.0625 81.6719C63.125 84.2969 68.1094 85.6094 75.0156 85.6094C75.7031 85.6094 76.4531 85.5938 77.2656 85.5625C78.0781 85.5312 78.8281 85.4844 79.5156 85.4219L82.7031 71.7344H68.7812L71.8281 58.5625H104.031L96.0625 93.0156C91.9062 94.4531 87.4688 95.7188 82.75 96.8125C78.0625 97.9062 73.2188 98.4531 68.2188 98.4531Z" fill="#7E766C"/>
</svg>
